<svg xmlns="http://www.w3.org/2000/svg" xmlns:xlink="http://www.w3.org/1999/xlink" width="500" zoomAndPan="magnify" viewBox="0 0 375 374.999991" height="500" preserveAspectRatio="xMidYMid meet" version="1.2"><defs><clipPath id="619216e2e7"><path d="M 98.628906 21.417969 L 173.527344 21.417969 L 173.527344 102.457031 L 98.628906 102.457031 Z M 98.628906 21.417969 "/></clipPath><clipPath id="846e212f4f"><path d="M 136.078125 21.417969 C 115.394531 21.417969 98.628906 39.546875 98.628906 61.910156 C 98.628906 84.269531 115.394531 102.398438 136.078125 102.398438 C 156.761719 102.398438 173.527344 84.269531 173.527344 61.910156 C 173.527344 39.546875 156.761719 21.417969 136.078125 21.417969 Z M 136.078125 21.417969 "/></clipPath><clipPath id="1ae6e73341"><path d="M 98.628906 21.417969 L 173.628906 21.417969 L 173.628906 102.417969 L 98.628906 102.417969 Z M 98.628906 21.417969 "/></clipPath><clipPath id="7be40e84a5"><path d="M 136.078125 21.417969 C 115.394531 21.417969 98.628906 39.546875 98.628906 61.90625 C 98.628906 84.265625 115.394531 102.394531 136.078125 102.394531 C 156.757812 102.394531 173.523438 84.265625 173.523438 61.90625 C 173.523438 39.546875 156.757812 21.417969 136.078125 21.417969 Z M 136.078125 21.417969 "/></clipPath><clipPath id="e3e08467e4"><path d="M 36.265625 40.035156 L 93.945312 40.035156 L 93.945312 102.445312 L 36.265625 102.445312 Z M 36.265625 40.035156 "/></clipPath><clipPath id="310dc1d54c"><path d="M 65.105469 40.035156 C 49.179688 40.035156 36.265625 53.996094 36.265625 71.214844 C 36.265625 88.4375 49.179688 102.398438 65.105469 102.398438 C 81.035156 102.398438 93.945312 88.4375 93.945312 71.214844 C 93.945312 53.996094 81.035156 40.035156 65.105469 40.035156 Z M 65.105469 40.035156 "/></clipPath><clipPath id="1f281e9ba7"><path d="M 36.265625 40.035156 L 94 40.035156 L 94 102.285156 L 36.265625 102.285156 Z M 36.265625 40.035156 "/></clipPath><clipPath id="d6b2315bc8"><path d="M 65.054688 40.035156 C 49.15625 40.035156 36.265625 53.96875 36.265625 71.160156 C 36.265625 88.347656 49.15625 102.28125 65.054688 102.28125 C 80.949219 102.28125 93.839844 88.347656 93.839844 71.160156 C 93.839844 53.96875 80.949219 40.035156 65.054688 40.035156 Z M 65.054688 40.035156 "/></clipPath><clipPath id="4b42c4bdb3"><path d="M 11.066406 92.09375 L 203.066406 92.09375 L 203.066406 274.34375 L 11.066406 274.34375 Z M 11.066406 92.09375 "/></clipPath><clipPath id="b27d74fcd5"><path d="M 28.292969 92.09375 L 185.839844 92.09375 C 190.40625 92.09375 194.789062 93.90625 198.019531 97.136719 C 201.25 100.367188 203.066406 104.75 203.066406 109.320312 L 203.066406 257 C 203.066406 261.570312 201.25 265.949219 198.019531 269.179688 C 194.789062 272.410156 190.40625 274.226562 185.839844 274.226562 L 28.292969 274.226562 C 23.726562 274.226562 19.34375 272.410156 16.113281 269.179688 C 12.882812 265.949219 11.066406 261.570312 11.066406 257 L 11.066406 109.320312 C 11.066406 104.75 12.882812 100.367188 16.113281 97.136719 C 19.34375 93.90625 23.726562 92.09375 28.292969 92.09375 Z M 28.292969 92.09375 "/></clipPath></defs><g id="822215503c"><g clip-rule="nonzero" clip-path="url(#619216e2e7)"><g clip-rule="nonzero" clip-path="url(#846e212f4f)"><path style=" stroke:none;fill-rule:nonzero;fill:#000000;fill-opacity:1;" d="M 98.628906 21.417969 L 173.527344 21.417969 L 173.527344 102.457031 L 98.628906 102.457031 Z M 98.628906 21.417969 "/></g></g><g clip-rule="nonzero" clip-path="url(#1ae6e73341)"><g clip-rule="nonzero" clip-path="url(#7be40e84a5)"><path style="fill:none;stroke-width:28;stroke-linecap:butt;stroke-linejoin:miter;stroke:#000000;stroke-opacity:1;stroke-miterlimit:4;" d="M 49.93134 0.000220902 C 22.353214 0.000220902 -0.000952231 24.172096 -0.000952231 53.984596 C -0.000952231 83.797096 22.353214 107.968971 49.93134 107.968971 C 77.504256 107.968971 99.858423 83.797096 99.858423 53.984596 C 99.858423 24.172096 77.504256 0.000220902 49.93134 0.000220902 Z M 49.93134 0.000220902 " transform="matrix(0.75,0,0,0.75,98.62962,21.417803)"/></g></g><g clip-rule="nonzero" clip-path="url(#e3e08467e4)"><g clip-rule="nonzero" clip-path="url(#310dc1d54c)"><path style=" stroke:none;fill-rule:nonzero;fill:#000000;fill-opacity:1;" d="M 36.265625 40.035156 L 93.945312 40.035156 L 93.945312 102.445312 L 36.265625 102.445312 Z M 36.265625 40.035156 "/></g></g><g clip-rule="nonzero" clip-path="url(#1f281e9ba7)"><g clip-rule="nonzero" clip-path="url(#d6b2315bc8)"><path style="fill:none;stroke-width:28;stroke-linecap:butt;stroke-linejoin:miter;stroke:#000000;stroke-opacity:1;stroke-miterlimit:4;" d="M 38.447916 -0.000589799 C 17.214082 -0.000589799 -0.00253965 18.609013 -0.00253965 41.569726 C -0.00253965 64.525222 17.214082 83.134825 38.447916 83.134825 C 59.676532 83.134825 76.893154 64.525222 76.893154 41.569726 C 76.893154 18.609013 59.676532 -0.000589799 38.447916 -0.000589799 Z M 38.447916 -0.000589799 " transform="matrix(0.748731,0,0,0.748731,36.267527,40.035598)"/></g></g><g clip-rule="nonzero" clip-path="url(#4b42c4bdb3)"><g clip-rule="nonzero" clip-path="url(#b27d74fcd5)"><path style="fill:none;stroke-width:14;stroke-linecap:butt;stroke-linejoin:miter;stroke:#000000;stroke-opacity:1;stroke-miterlimit:4;" d="M 22.99728 0.00150074 L 233.341851 0.00150074 C 239.438568 0.00150074 245.290165 2.421412 249.603241 6.734488 C 253.916316 11.047563 256.341443 16.89916 256.341443 23.001093 L 256.341443 220.171748 C 256.341443 226.27368 253.916316 232.120062 249.603241 236.433137 C 245.290165 240.746213 239.438568 243.17134 233.341851 243.17134 L 22.99728 243.17134 C 16.900563 243.17134 11.048966 240.746213 6.73589 236.433137 C 2.422815 232.120062 -0.00231212 226.27368 -0.00231212 220.171748 L -0.00231212 23.001093 C -0.00231212 16.89916 2.422815 11.047563 6.73589 6.734488 C 11.048966 2.421412 16.900563 0.00150074 22.99728 0.00150074 Z M 22.99728 0.00150074 " transform="matrix(0.748994,0,0,0.748994,11.068138,92.092626)"/></g></g><g style="fill:#ffffff;fill-opacity:1;"><g transform="translate(203.329386, 222.331801)"><path style="stroke:none" d="M 6.046875 -83.109375 L 31.828125 -83.109375 C 39.617188 -83.109375 45.832031 -81.445312 50.46875 -78.125 C 55.101562 -74.800781 57.421875 -69.410156 57.421875 -61.953125 C 57.421875 -53.617188 53.960938 -47.675781 47.046875 -44.125 C 58.859375 -42.039062 64.765625 -35.054688 64.765625 -23.171875 C 64.765625 -16.179688 62.347656 -10.570312 57.515625 -6.34375 C 52.679688 -2.113281 46.035156 0 37.578125 0 L 6.046875 0 Z M 24.984375 -50.5625 L 26.5 -50.5625 C 30.726562 -50.5625 33.878906 -51.300781 35.953125 -52.78125 C 38.035156 -54.257812 39.078125 -56.675781 39.078125 -60.03125 C 39.078125 -65.675781 34.882812 -68.5 26.5 -68.5 L 24.984375 -68.5 Z M 24.984375 -14.609375 L 30.921875 -14.609375 C 40.191406 -14.609375 44.828125 -17.695312 44.828125 -23.875 C 44.828125 -27.570312 43.664062 -30.222656 41.34375 -31.828125 C 39.03125 -33.441406 35.554688 -34.25 30.921875 -34.25 L 24.984375 -34.25 Z M 24.984375 -14.609375 "/></g></g><g style="fill:#ffffff;fill-opacity:1;"><g transform="translate(263.96095, 222.331801)"><path style="stroke:none" d="M 24.984375 -83.109375 L 24.984375 0 L 6.046875 0 L 6.046875 -83.109375 Z M 24.984375 -83.109375 "/></g></g><g style="fill:#ffffff;fill-opacity:1;"><g transform="translate(288.535136, 222.331801)"><path style="stroke:none" d="M 81.1875 -46.546875 L 81.1875 -28.515625 C 79.039062 -18.640625 74.335938 -11.164062 67.078125 -6.09375 C 59.828125 -1.019531 51.738281 1.515625 42.8125 1.515625 C 31.59375 1.515625 22.035156 -2.679688 14.140625 -11.078125 C 6.253906 -19.472656 2.3125 -29.613281 2.3125 -41.5 C 2.3125 -53.59375 6.171875 -63.800781 13.890625 -72.125 C 21.617188 -80.445312 31.257812 -84.609375 42.8125 -84.609375 C 56.3125 -84.609375 66.988281 -79.875 74.84375 -70.40625 L 62.453125 -56.8125 C 58.023438 -63.925781 51.847656 -67.484375 43.921875 -67.484375 C 38.078125 -67.484375 33.085938 -64.945312 28.953125 -59.875 C 24.828125 -54.8125 22.765625 -48.6875 22.765625 -41.5 C 22.765625 -34.445312 24.828125 -28.421875 28.953125 -23.421875 C 33.085938 -18.421875 38.078125 -15.921875 43.921875 -15.921875 C 48.753906 -15.921875 52.96875 -17.378906 56.5625 -20.296875 C 60.15625 -23.222656 61.953125 -27.101562 61.953125 -31.9375 L 42.8125 -31.9375 L 42.8125 -46.546875 Z M 81.1875 -46.546875 "/></g></g><path style=" stroke:none;fill-rule:nonzero;fill:#ffed00;fill-opacity:1;" d="M 28.324219 99.703125 L 185.40625 99.703125 C 192.753906 99.703125 198.710938 105.660156 198.710938 113.007812 L 198.710938 252.710938 C 198.710938 260.0625 192.753906 266.019531 185.40625 266.019531 L 28.324219 266.019531 C 20.976562 266.019531 15.019531 260.0625 15.019531 252.710938 L 15.019531 113.007812 C 15.019531 105.660156 20.976562 99.703125 28.324219 99.703125 Z M 28.324219 99.703125 "/><g style="fill:#000000;fill-opacity:1;"><g transform="translate(19.87639, 219.563071)"><path style="stroke:none" d="M 15.765625 0.78125 C 14.359375 0.78125 13.265625 0.375 12.484375 -0.4375 C 11.710938 -1.257812 11.328125 -2.410156 11.328125 -3.890625 L 11.328125 -46.984375 L 4.21875 -46.984375 C 3.03125 -46.984375 2.082031 -47.296875 1.375 -47.921875 C 0.675781 -48.554688 0.328125 -49.429688 0.328125 -50.546875 C 0.328125 -51.648438 0.675781 -52.5 1.375 -53.09375 C 2.082031 -53.6875 3.03125 -53.984375 4.21875 -53.984375 L 13.78125 -53.984375 L 11.328125 -51.65625 L 11.328125 -55.875 C 11.328125 -62.90625 13.046875 -68.269531 16.484375 -71.96875 C 19.929688 -75.675781 24.988281 -77.828125 31.65625 -78.421875 L 34.875 -78.75 C 35.914062 -78.820312 36.75 -78.632812 37.375 -78.1875 C 38.007812 -77.75 38.414062 -77.195312 38.59375 -76.53125 C 38.78125 -75.863281 38.800781 -75.175781 38.65625 -74.46875 C 38.507812 -73.769531 38.175781 -73.160156 37.65625 -72.640625 C 37.132812 -72.128906 36.503906 -71.832031 35.765625 -71.75 L 33.21875 -71.53125 C 28.695312 -71.164062 25.414062 -69.796875 23.375 -67.421875 C 21.34375 -65.054688 20.328125 -61.578125 20.328125 -56.984375 L 20.328125 -52.3125 L 19 -53.984375 L 32.328125 -53.984375 C 33.585938 -53.984375 34.550781 -53.6875 35.21875 -53.09375 C 35.882812 -52.5 36.21875 -51.648438 36.21875 -50.546875 C 36.21875 -49.429688 35.882812 -48.554688 35.21875 -47.921875 C 34.550781 -47.296875 33.585938 -46.984375 32.328125 -46.984375 L 20.328125 -46.984375 L 20.328125 -3.890625 C 20.328125 -0.773438 18.804688 0.78125 15.765625 0.78125 Z M 15.765625 0.78125 "/></g></g><g style="fill:#000000;fill-opacity:1;"><g transform="translate(47.421502, 219.563071)"><path style="stroke:none" d="M 24.875 1 C 19.550781 1 15.476562 -0.628906 12.65625 -3.890625 C 9.84375 -7.148438 8.4375 -11.816406 8.4375 -17.890625 L 8.4375 -74.53125 C 8.4375 -76.007812 8.804688 -77.140625 9.546875 -77.921875 C 10.285156 -78.703125 11.398438 -79.09375 12.890625 -79.09375 C 14.296875 -79.09375 15.40625 -78.703125 16.21875 -77.921875 C 17.03125 -77.140625 17.4375 -76.007812 17.4375 -74.53125 L 17.4375 -18.546875 C 17.4375 -14.546875 18.234375 -11.566406 19.828125 -9.609375 C 21.421875 -7.648438 23.769531 -6.671875 26.875 -6.671875 C 27.539062 -6.671875 28.132812 -6.707031 28.65625 -6.78125 C 29.175781 -6.851562 29.695312 -6.890625 30.21875 -6.890625 C 31.03125 -6.960938 31.601562 -6.773438 31.9375 -6.328125 C 32.269531 -5.890625 32.4375 -5.003906 32.4375 -3.671875 C 32.4375 -2.335938 32.140625 -1.335938 31.546875 -0.671875 C 30.953125 -0.00390625 29.988281 0.441406 28.65625 0.671875 C 28.0625 0.742188 27.429688 0.816406 26.765625 0.890625 C 26.097656 0.960938 25.46875 1 24.875 1 Z M 24.875 1 "/></g></g><g style="fill:#000000;fill-opacity:1;"><g transform="translate(70.857007, 219.563071)"><path style="stroke:none" d="M 12.890625 0.5625 C 11.398438 0.5625 10.285156 0.132812 9.546875 -0.71875 C 8.804688 -1.570312 8.4375 -2.773438 8.4375 -4.328125 L 8.4375 -49.765625 C 8.4375 -51.316406 8.804688 -52.5 9.546875 -53.3125 C 10.285156 -54.132812 11.398438 -54.546875 12.890625 -54.546875 C 14.296875 -54.546875 15.40625 -54.132812 16.21875 -53.3125 C 17.03125 -52.5 17.4375 -51.316406 17.4375 -49.765625 L 17.4375 -4.328125 C 17.4375 -2.773438 17.046875 -1.570312 16.265625 -0.71875 C 15.492188 0.132812 14.367188 0.5625 12.890625 0.5625 Z M 12.890625 -66.984375 C 11.035156 -66.984375 9.585938 -67.484375 8.546875 -68.484375 C 7.515625 -69.484375 7 -70.832031 7 -72.53125 C 7 -74.3125 7.515625 -75.664062 8.546875 -76.59375 C 9.585938 -77.519531 11.035156 -77.984375 12.890625 -77.984375 C 14.804688 -77.984375 16.265625 -77.519531 17.265625 -76.59375 C 18.265625 -75.664062 18.765625 -74.3125 18.765625 -72.53125 C 18.765625 -70.832031 18.265625 -69.484375 17.265625 -68.484375 C 16.265625 -67.484375 14.804688 -66.984375 12.890625 -66.984375 Z M 12.890625 -66.984375 "/></g></g><g style="fill:#000000;fill-opacity:1;"><g transform="translate(87.183997, 219.563071)"><path style="stroke:none" d="M 31.328125 1 C 25.921875 1 21.253906 -0.179688 17.328125 -2.546875 C 13.398438 -4.921875 10.378906 -8.238281 8.265625 -12.5 C 6.160156 -16.757812 5.109375 -21.703125 5.109375 -27.328125 C 5.109375 -31.617188 5.703125 -35.46875 6.890625 -38.875 C 8.078125 -42.28125 9.816406 -45.1875 12.109375 -47.59375 C 14.398438 -50 17.15625 -51.832031 20.375 -53.09375 C 23.601562 -54.351562 27.253906 -54.984375 31.328125 -54.984375 C 33.992188 -54.984375 36.769531 -54.578125 39.65625 -53.765625 C 42.539062 -52.953125 45.171875 -51.546875 47.546875 -49.546875 C 48.285156 -49.023438 48.765625 -48.394531 48.984375 -47.65625 C 49.203125 -46.914062 49.203125 -46.191406 48.984375 -45.484375 C 48.765625 -44.785156 48.394531 -44.191406 47.875 -43.703125 C 47.351562 -43.222656 46.703125 -42.945312 45.921875 -42.875 C 45.148438 -42.800781 44.359375 -43.0625 43.546875 -43.65625 C 41.617188 -45.132812 39.65625 -46.171875 37.65625 -46.765625 C 35.65625 -47.359375 33.726562 -47.65625 31.875 -47.65625 C 28.988281 -47.65625 26.472656 -47.191406 24.328125 -46.265625 C 22.179688 -45.335938 20.363281 -44.019531 18.875 -42.3125 C 17.394531 -40.613281 16.265625 -38.503906 15.484375 -35.984375 C 14.710938 -33.472656 14.328125 -30.550781 14.328125 -27.21875 C 14.328125 -20.769531 15.84375 -15.675781 18.875 -11.9375 C 21.914062 -8.195312 26.25 -6.328125 31.875 -6.328125 C 33.726562 -6.328125 35.632812 -6.625 37.59375 -7.21875 C 39.5625 -7.8125 41.546875 -8.847656 43.546875 -10.328125 C 44.359375 -10.921875 45.132812 -11.179688 45.875 -11.109375 C 46.613281 -11.035156 47.242188 -10.753906 47.765625 -10.265625 C 48.285156 -9.785156 48.632812 -9.175781 48.8125 -8.4375 C 49 -7.695312 48.984375 -6.972656 48.765625 -6.265625 C 48.546875 -5.566406 48.0625 -4.957031 47.3125 -4.4375 C 44.945312 -2.519531 42.359375 -1.132812 39.546875 -0.28125 C 36.734375 0.570312 33.992188 1 31.328125 1 Z M 31.328125 1 "/></g></g><g style="fill:#000000;fill-opacity:1;"><g transform="translate(129.168278, 219.563071)"><path style="stroke:none" d="M 12.890625 0.78125 C 11.398438 0.78125 10.285156 0.375 9.546875 -0.4375 C 8.804688 -1.257812 8.4375 -2.410156 8.4375 -3.890625 L 8.4375 -74.53125 C 8.4375 -76.007812 8.804688 -77.140625 9.546875 -77.921875 C 10.285156 -78.703125 11.398438 -79.09375 12.890625 -79.09375 C 14.296875 -79.09375 15.40625 -78.703125 16.21875 -77.921875 C 17.03125 -77.140625 17.4375 -76.007812 17.4375 -74.53125 L 17.4375 -29.984375 L 17.65625 -29.984375 L 40.4375 -51.765625 C 41.46875 -52.722656 42.367188 -53.460938 43.140625 -53.984375 C 43.921875 -54.503906 44.976562 -54.765625 46.3125 -54.765625 C 47.5 -54.765625 48.425781 -54.445312 49.09375 -53.8125 C 49.757812 -53.1875 50.070312 -52.410156 50.03125 -51.484375 C 50 -50.554688 49.539062 -49.578125 48.65625 -48.546875 L 24.4375 -25.546875 L 24.4375 -30.4375 L 50.765625 -5.671875 C 51.796875 -4.628906 52.3125 -3.625 52.3125 -2.65625 C 52.3125 -1.695312 51.957031 -0.882812 51.25 -0.21875 C 50.550781 0.445312 49.648438 0.78125 48.546875 0.78125 C 47.210938 0.78125 46.132812 0.503906 45.3125 -0.046875 C 44.5 -0.609375 43.503906 -1.445312 42.328125 -2.5625 L 17.65625 -25.328125 L 17.4375 -25.328125 L 17.4375 -3.890625 C 17.4375 -0.773438 15.921875 0.78125 12.890625 0.78125 Z M 12.890625 0.78125 "/></g></g><path style="fill:none;stroke-width:9;stroke-linecap:butt;stroke-linejoin:miter;stroke:#000000;stroke-opacity:1;stroke-miterlimit:4;" d="M -0.00215983 4.498825 L 127.989173 4.497493 " transform="matrix(0.446875,-0.602331,0.602331,0.446875,47.291183,349.558599)"/><path style="fill:none;stroke-width:9;stroke-linecap:butt;stroke-linejoin:miter;stroke:#000000;stroke-opacity:1;stroke-miterlimit:4;" d="M -0.00125946 4.501231 L 82.363351 4.501231 " transform="matrix(0.00000000130328,-0.746727,0.746727,0.00000000130328,103.822402,336.24906)"/><path style="fill:none;stroke-width:9;stroke-linecap:butt;stroke-linejoin:miter;stroke:#000000;stroke-opacity:1;stroke-miterlimit:4;" d="M 0.00220861 4.499871 L 124.884984 4.499097 " transform="matrix(-0.425958,-0.6173,0.6173,-0.425958,157.609888,353.484526)"/></g></svg>